<svg width="31" height="12" viewBox="0 0 31 12" fill="none" xmlns="http://www.w3.org/2000/svg">
<path d="M8.064 9.054H6.65V11H4.886V9.054H0.546V7.71L5.208 1.032H6.65V7.64H8.064V9.054ZM4.886 7.64V3.846L2.254 7.64H4.886ZM11.1245 9.04V11H9.16453V9.04H11.1245ZM16.6402 4.63C17.2655 4.63 17.8162 4.76533 18.2922 5.036C18.7682 5.29733 19.1369 5.67067 19.3982 6.156C19.6595 6.632 19.7902 7.18267 19.7902 7.808C19.7902 8.46133 19.6409 9.04 19.3422 9.544C19.0435 10.0387 18.6142 10.426 18.0542 10.706C17.4942 10.9767 16.8455 11.112 16.1082 11.112C15.4829 11.112 14.8669 11.0093 14.2602 10.804C13.6535 10.5893 13.1542 10.3047 12.7622 9.95L13.3642 8.634C14.2695 9.32467 15.1935 9.67 16.1362 9.67C16.7615 9.67 17.2375 9.516 17.5642 9.208C17.9002 8.89067 18.0682 8.44267 18.0682 7.864C18.0682 7.31333 17.8955 6.87467 17.5502 6.548C17.2142 6.212 16.7615 6.044 16.1922 6.044C15.8002 6.044 15.4315 6.11867 15.0862 6.268C14.7409 6.408 14.4375 6.618 14.1762 6.898H13.0842V1.032H19.3282V2.432H14.8482V5.148C15.3522 4.80267 15.9495 4.63 16.6402 4.63ZM19.9527 11.826L23.5787 0.458H25.0767L21.4227 11.826H19.9527ZM28.0988 6.45C28.5454 6.45 28.9388 6.54667 29.2788 6.74C29.6188 6.92667 29.8821 7.19333 30.0688 7.54C30.2554 7.88 30.3488 8.27333 30.3488 8.72C30.3488 9.18667 30.2421 9.6 30.0288 9.96C29.8154 10.3133 29.5088 10.59 29.1088 10.79C28.7088 10.9833 28.2454 11.08 27.7188 11.08C27.2721 11.08 26.8321 11.0067 26.3988 10.86C25.9654 10.7067 25.6088 10.5033 25.3288 10.25L25.7588 9.31C26.4054 9.80333 27.0654 10.05 27.7388 10.05C28.1854 10.05 28.5254 9.94 28.7588 9.72C28.9988 9.49333 29.1188 9.17333 29.1188 8.76C29.1188 8.36667 28.9954 8.05333 28.7488 7.82C28.5088 7.58 28.1854 7.46 27.7788 7.46C27.4988 7.46 27.2354 7.51333 26.9888 7.62C26.7421 7.72 26.5254 7.87 26.3388 8.07H25.5588V3.88H30.0188V4.88H26.8188V6.82C27.1788 6.57333 27.6054 6.45 28.0988 6.45Z" fill="white"/>
</svg>
