<svg width="20" height="22" viewBox="0 0 20 22" fill="none" xmlns="http://www.w3.org/2000/svg">
<g filter="url(#filter0_d)">
<path fill-rule="evenodd" clip-rule="evenodd" d="M9.64195 0.70621C9.8526 0.542373 10.1476 0.542373 10.3582 0.70621L15.6082 4.78954C15.7503 4.90006 15.8334 5.06999 15.8334 5.25V11.6667C15.8334 12.1308 15.649 12.5759 15.3209 12.9041C14.9927 13.2323 14.5475 13.4167 14.0834 13.4167H5.91675C5.45262 13.4167 5.0075 13.2323 4.67931 12.9041C4.35112 12.5759 4.16675 12.1308 4.16675 11.6667V5.25C4.16675 5.06999 4.24986 4.90006 4.39195 4.78954L9.64195 0.70621ZM5.33341 5.5353V11.6667C5.33341 11.8214 5.39487 11.9697 5.50427 12.0791C5.61367 12.1885 5.76204 12.25 5.91675 12.25H14.0834C14.2381 12.25 14.3865 12.1885 14.4959 12.0791C14.6053 11.9697 14.6667 11.8214 14.6667 11.6667V5.5353L10.0001 1.90567L5.33341 5.5353Z" fill="white"/>
<path fill-rule="evenodd" clip-rule="evenodd" d="M7.66675 7C7.66675 6.67783 7.92792 6.41667 8.25008 6.41667H11.7501C12.0722 6.41667 12.3334 6.67783 12.3334 7V12.8333C12.3334 13.1555 12.0722 13.4167 11.7501 13.4167C11.4279 13.4167 11.1667 13.1555 11.1667 12.8333V7.58333H8.83342V12.8333C8.83342 13.1555 8.57225 13.4167 8.25008 13.4167C7.92792 13.4167 7.66675 13.1555 7.66675 12.8333V7Z" fill="white"/>
</g>
<defs>
<filter id="filter0_d" x="-1" y="0" width="22" height="22" filterUnits="userSpaceOnUse" color-interpolation-filters="sRGB">
<feFlood flood-opacity="0" result="BackgroundImageFix"/>
<feColorMatrix in="SourceAlpha" type="matrix" values="0 0 0 0 0 0 0 0 0 0 0 0 0 0 0 0 0 0 127 0"/>
<feOffset dy="4"/>
<feGaussianBlur stdDeviation="2"/>
<feColorMatrix type="matrix" values="0 0 0 0 0 0 0 0 0 0 0 0 0 0 0 0 0 0 0.25 0"/>
<feBlend mode="normal" in2="BackgroundImageFix" result="effect1_dropShadow"/>
<feBlend mode="normal" in="SourceGraphic" in2="effect1_dropShadow" result="shape"/>
</filter>
</defs>
</svg>
